<svg xmlns="http://www.w3.org/2000/svg" fill="none" viewBox="4.5 0.5 144 26">
    <g filter="url(#filter0_d_0_8518)">
        <path fill-rule="evenodd" clip-rule="evenodd"
              d="M62.9755 5.10884V1H58.2131V5.10884H62.9755ZM46.8721 21.3997C48.5076 21.3997 49.9648 20.8429 51.1074 19.8803L51.5635 20.9241H55.1425V1.79209L50.3611 1.79209V7.38308C49.3548 6.75732 48.1686 6.40721 46.8721 6.40721C42.5634 6.40721 39.4943 9.52769 39.4943 13.896C39.4943 18.2644 42.5634 21.3997 46.8721 21.3997ZM12.3626 21.3849C13.9935 21.3849 15.4497 20.8476 16.5995 19.9152L17.0137 20.9093H20.7527V6.85311L17.1479 6.85285L16.6531 7.93986C15.4936 6.98222 14.0164 6.42934 12.3626 6.42934C8.06909 6.42934 5 9.52769 5 13.8809C5 18.2493 8.06909 21.3849 12.3626 21.3849ZM13.0093 17.098C11.1977 17.098 9.86614 15.7278 9.86614 13.8921C9.86614 12.0677 11.1868 10.6975 13.0093 10.6975C14.8209 10.6975 16.1525 12.0677 16.1525 13.8921C16.1525 15.7278 14.8209 17.098 13.0093 17.098ZM37.4542 14.8899C37.4542 18.823 34.6916 21.3849 30.544 21.3849C26.396 21.3849 23.6184 18.823 23.6184 14.8899V6.86794H28.4549V14.6793C28.4549 16.163 29.2516 17.0355 30.544 17.0355C31.836 17.0355 32.6177 16.1482 32.6177 14.6793V6.86794H37.4542V14.8899ZM44.3758 13.8963C44.3758 15.7317 45.7074 17.1128 47.519 17.1128C49.3306 17.1128 50.6622 15.7317 50.6622 13.8963C50.6622 12.0607 49.3306 10.6795 47.519 10.6795C45.7074 10.6795 44.3758 12.0607 44.3758 13.8963ZM63.0127 6.86768V20.9239H58.1762V6.86768H63.0127ZM73.1095 21.3849C77.6727 21.3849 80.9821 18.2384 80.9821 13.896C80.9821 9.53888 77.6727 6.40747 73.1095 6.40747C68.5315 6.40747 65.237 9.53888 65.237 13.896C65.237 18.2384 68.5315 21.3849 73.1095 21.3849ZM70.0812 13.8963C70.0812 15.7546 71.346 17.0355 73.1095 17.0358C74.873 17.0358 76.1378 15.7548 76.1378 13.8966C76.1378 12.0492 74.873 10.7571 73.1095 10.7571C71.346 10.7571 70.0812 12.038 70.0812 13.8963ZM87.9978 26V20.4663C88.9888 21.0655 90.1511 21.3997 91.4208 21.3997C95.7144 21.3997 98.7835 18.2753 98.7835 13.896C98.7835 9.51676 95.7144 6.40721 91.4208 6.40721C89.7523 6.40721 88.2662 6.98508 87.1114 7.98463L86.5056 6.86794H83.2165V26H87.9978ZM87.6307 13.8958C87.6307 15.7424 88.9623 17.1126 90.7739 17.1126C92.5743 17.1126 93.9171 15.7424 93.9171 13.8958C93.9171 12.0492 92.5855 10.679 90.7739 10.679C88.9623 10.679 87.6307 12.0492 87.6307 13.8958ZM105.839 20.9241V13.4181C105.839 11.6143 106.751 10.5746 108.215 10.5746C109.477 10.5746 110.046 11.4011 110.046 13.0222V20.9241H114.882V12.4597C114.882 8.81629 112.811 6.45225 109.587 6.45225C108.188 6.45225 106.873 6.95931 105.839 7.79279V1.79209H101.002V20.9241H105.839ZM122.574 1V5.10884H117.811V1H122.574ZM122.611 6.86768H117.774V20.9239H122.611V6.86768ZM130.489 1.79209V20.9241H125.653V1.79209H130.489ZM140.34 21.3851C143.863 21.3851 146.704 19.3808 147.692 16.1729H142.879C142.414 16.9957 141.47 17.4911 140.34 17.4911C138.813 17.4911 137.79 16.6573 137.474 15.045H147.9C147.963 14.6103 148 14.1868 148 13.7633C148 9.63988 144.866 6.40747 140.34 6.40747C135.933 6.40747 132.714 9.57611 132.714 13.8854C132.714 18.1795 135.959 21.3851 140.34 21.3851ZM137.559 12.3639H143.236C142.811 10.9591 141.8 10.2011 140.34 10.2011C138.931 10.2011 137.951 10.9677 137.559 12.3639Z"
              fill="white"/>
        <path d="M62.9755 1H63.4755V0.5H62.9755V1ZM62.9755 5.10884V5.60884H63.4755V5.10884H62.9755ZM58.2131 1V0.5H57.7131V1H58.2131ZM58.2131 5.10884H57.7131V5.60884H58.2131V5.10884ZM51.1074 19.8803L51.5655 19.6801L51.2974 19.0665L50.7852 19.498L51.1074 19.8803ZM51.5635 20.9241L51.1053 21.1243L51.2363 21.4241H51.5635V20.9241ZM55.1425 20.9241V21.4241H55.6425V20.9241H55.1425ZM55.1425 1.79209H55.6425V1.29209L55.1425 1.29209L55.1425 1.79209ZM50.3611 1.79209L50.3611 1.29209L49.8611 1.29209V1.79209H50.3611ZM50.3611 7.38308L50.0971 7.80768L50.8611 8.28279V7.38308H50.3611ZM16.5995 19.9152L17.0611 19.7229L16.8039 19.1058L16.2846 19.5269L16.5995 19.9152ZM17.0137 20.9093L16.5522 21.1016L16.6804 21.4093H17.0137V20.9093ZM20.7527 20.9093V21.4093H21.2527V20.9093H20.7527ZM20.7527 6.85311H21.2527V6.35314L20.7527 6.35311L20.7527 6.85311ZM17.1479 6.85285L17.148 6.35285L16.8262 6.35282L16.6928 6.64569L17.1479 6.85285ZM16.6531 7.93986L16.3347 8.32537L16.8378 8.74092L17.1082 8.14702L16.6531 7.93986ZM23.6184 6.86794V6.36794H23.1184V6.86794H23.6184ZM28.4549 6.86794H28.9549V6.36794H28.4549V6.86794ZM32.6177 6.86794V6.36794H32.1177V6.86794H32.6177ZM37.4542 6.86794H37.9542V6.36794H37.4542V6.86794ZM63.0127 20.9239V21.4239H63.5127V20.9239H63.0127ZM63.0127 6.86768H63.5127V6.36768H63.0127V6.86768ZM58.1762 20.9239H57.6762V21.4239H58.1762V20.9239ZM58.1762 6.86768V6.36768H57.6762V6.86768H58.1762ZM73.1095 17.0358L73.1094 17.5358H73.1095V17.0358ZM87.9978 20.4663L88.2566 20.0384L87.4978 19.5796V20.4663H87.9978ZM87.9978 26V26.5H88.4978V26H87.9978ZM91.4208 6.40721L91.4208 6.90721L91.4208 6.90721L91.4208 6.40721ZM87.1114 7.98463L86.6719 8.22307L86.9685 8.76965L87.4387 8.36268L87.1114 7.98463ZM86.5056 6.86794L86.945 6.6295L86.8031 6.36794H86.5056V6.86794ZM83.2165 6.86794V6.36794H82.7165V6.86794H83.2165ZM83.2165 26H82.7165V26.5H83.2165V26ZM105.839 20.9241V21.4241H106.339V20.9241H105.839ZM110.046 20.9241H109.546V21.4241H110.046V20.9241ZM114.882 20.9241V21.4241H115.382V20.9241H114.882ZM105.839 7.79279H105.339V8.83813L106.153 8.18205L105.839 7.79279ZM105.839 1.79209H106.339V1.29209H105.839V1.79209ZM101.002 1.79209V1.29209H100.502V1.79209H101.002ZM101.002 20.9241H100.502V21.4241H101.002V20.9241ZM122.574 5.10884V5.60884H123.074V5.10884H122.574ZM122.574 1H123.074V0.5H122.574V1ZM117.811 5.10884H117.311V5.60884H117.811V5.10884ZM117.811 1V0.5H117.311V1H117.811ZM117.774 6.86768V6.36768H117.274V6.86768H117.774ZM122.611 6.86768H123.111V6.36768H122.611V6.86768ZM117.774 20.9239H117.274V21.4239H117.774V20.9239ZM122.611 20.9239V21.4239H123.111V20.9239H122.611ZM130.489 20.9241V21.4241H130.989V20.9241H130.489ZM130.489 1.79209H130.989V1.29209H130.489V1.79209ZM125.653 20.9241H125.153V21.4241H125.653V20.9241ZM125.653 1.79209V1.29209H125.153V1.79209H125.653ZM147.692 16.1729L148.17 16.3201L148.369 15.6729H147.692V16.1729ZM142.879 16.1729V15.6729H142.587L142.444 15.9269L142.879 16.1729ZM137.474 15.045V14.545H136.866L136.983 15.1413L137.474 15.045ZM147.9 15.045V15.545H148.333L148.395 15.1166L147.9 15.045ZM148 13.7633L147.5 13.7633V13.7633H148ZM143.236 12.3639V12.8639H143.909L143.714 12.2193L143.236 12.3639ZM137.559 12.3639L137.078 12.229L136.9 12.8639H137.559V12.3639ZM62.4755 1V5.10884H63.4755V1H62.4755ZM58.2131 1.5H62.9755V0.5H58.2131V1.5ZM58.7131 5.10884V1H57.7131V5.10884H58.7131ZM62.9755 4.60884H58.2131V5.60884H62.9755V4.60884ZM50.7852 19.498C49.733 20.3844 48.39 20.8997 46.8721 20.8997V21.8997C48.6253 21.8997 50.1966 21.3014 51.4295 20.2627L50.7852 19.498ZM52.0216 20.724L51.5655 19.6801L50.6492 20.0805L51.1053 21.1243L52.0216 20.724ZM55.1425 20.4241H51.5635V21.4241H55.1425V20.4241ZM54.6425 1.79209V20.9241H55.6425V1.79209H54.6425ZM50.3611 2.29209L55.1425 2.29209L55.1425 1.29209L50.3611 1.29209L50.3611 2.29209ZM50.8611 7.38308V1.79209H49.8611V7.38308H50.8611ZM46.8721 6.90721C48.0765 6.90721 49.1711 7.23186 50.0971 7.80768L50.6251 6.95848C49.5385 6.28278 48.2606 5.90721 46.8721 5.90721V6.90721ZM39.9943 13.896C39.9943 9.79653 42.8468 6.90721 46.8721 6.90721V5.90721C42.28 5.90721 38.9943 9.25885 38.9943 13.896H39.9943ZM46.8721 20.8997C42.8481 20.8997 39.9943 17.9969 39.9943 13.896H38.9943C38.9943 18.5319 42.2787 21.8997 46.8721 21.8997V20.8997ZM16.2846 19.5269C15.2248 20.3863 13.8801 20.8849 12.3626 20.8849V21.8849C14.107 21.8849 15.6746 21.309 16.9144 20.3036L16.2846 19.5269ZM17.4753 20.717L17.0611 19.7229L16.138 20.1075L16.5522 21.1016L17.4753 20.717ZM20.7527 20.4093H17.0137V21.4093H20.7527V20.4093ZM20.2527 6.85311V20.9093H21.2527V6.85311H20.2527ZM17.1479 7.35285L20.7526 7.35311L20.7527 6.35311L17.148 6.35285L17.1479 7.35285ZM17.1082 8.14702L17.603 7.06L16.6928 6.64569L16.198 7.7327L17.1082 8.14702ZM12.3626 6.92934C13.9013 6.92934 15.2657 7.44246 16.3347 8.32537L16.9715 7.55435C15.7216 6.52197 14.1315 5.92934 12.3626 5.92934V6.92934ZM5.5 13.8809C5.5 9.79851 8.35053 6.92934 12.3626 6.92934V5.92934C7.78765 5.92934 4.5 9.25688 4.5 13.8809H5.5ZM12.3626 20.8849C8.35448 20.8849 5.5 17.9825 5.5 13.8809H4.5C4.5 18.5161 7.7837 21.8849 12.3626 21.8849V20.8849ZM9.36614 13.8921C9.36614 15.9933 10.9111 17.598 13.0093 17.598V16.598C11.4844 16.598 10.3661 15.4622 10.3661 13.8921H9.36614ZM13.0093 10.1975C10.9002 10.1975 9.36614 11.8022 9.36614 13.8921H10.3661C10.3661 12.3332 11.4734 11.1975 13.0093 11.1975V10.1975ZM16.6525 13.8921C16.6525 11.801 15.1064 10.1975 13.0093 10.1975V11.1975C14.5354 11.1975 15.6525 12.3344 15.6525 13.8921H16.6525ZM13.0093 17.598C15.1076 17.598 16.6525 15.9933 16.6525 13.8921H15.6525C15.6525 15.4622 14.5343 16.598 13.0093 16.598V17.598ZM30.544 21.8849C32.7206 21.8849 34.5782 21.2113 35.8962 19.9773C37.2174 18.7402 37.9542 16.9787 37.9542 14.8899H36.9542C36.9542 16.7342 36.3097 18.2202 35.2127 19.2473C34.1125 20.2775 32.515 20.8849 30.544 20.8849V21.8849ZM23.1184 14.8899C23.1184 16.9795 23.8595 18.7411 25.1845 19.9778C26.5062 21.2114 28.3673 21.8849 30.544 21.8849V20.8849C28.5727 20.8849 26.971 20.2774 25.8669 19.2468C24.7661 18.2193 24.1184 16.7334 24.1184 14.8899H23.1184ZM23.1184 6.86794V14.8899H24.1184V6.86794H23.1184ZM28.4549 6.36794H23.6184V7.36794H28.4549V6.36794ZM28.9549 14.6793V6.86794H27.9549V14.6793H28.9549ZM30.544 16.5355C30.0158 16.5355 29.6384 16.3612 29.3876 16.0806C29.1306 15.793 28.9549 15.3354 28.9549 14.6793H27.9549C27.9549 15.5069 28.1776 16.2274 28.642 16.747C29.1127 17.2736 29.7798 17.5355 30.544 17.5355V16.5355ZM32.1177 14.6793C32.1177 15.3292 31.9451 15.7881 31.69 16.0779C31.4421 16.3595 31.069 16.5355 30.544 16.5355V17.5355C31.311 17.5355 31.9748 17.2678 32.4406 16.7386C32.8994 16.2174 33.1177 15.4983 33.1177 14.6793H32.1177ZM32.1177 6.86794V14.6793H33.1177V6.86794H32.1177ZM37.4542 6.36794H32.6177V7.36794H37.4542V6.36794ZM37.9542 14.8899V6.86794H36.9542V14.8899H37.9542ZM47.519 16.6128C45.9962 16.6128 44.8758 15.4684 44.8758 13.8963H43.8758C43.8758 15.995 45.4186 17.6128 47.519 17.6128V16.6128ZM50.1622 13.8963C50.1622 15.4684 49.0418 16.6128 47.519 16.6128V17.6128C49.6194 17.6128 51.1622 15.995 51.1622 13.8963H50.1622ZM47.519 11.1795C49.0418 11.1795 50.1622 12.3239 50.1622 13.8963H51.1622C51.1622 11.7974 49.6195 10.1795 47.519 10.1795V11.1795ZM44.8758 13.8963C44.8758 12.3239 45.9963 11.1795 47.519 11.1795V10.1795C45.4186 10.1795 43.8758 11.7974 43.8758 13.8963H44.8758ZM63.5127 20.9239V6.86768H62.5127V20.9239H63.5127ZM58.1762 21.4239H63.0127V20.4239H58.1762V21.4239ZM57.6762 6.86768V20.9239H58.6762V6.86768H57.6762ZM63.0127 6.36768H58.1762V7.36768H63.0127V6.36768ZM80.4821 13.896C80.4821 17.9389 77.4205 20.8849 73.1095 20.8849V21.8849C77.925 21.8849 81.4821 18.5378 81.4821 13.896H80.4821ZM73.1095 6.90747C77.4212 6.90747 80.4821 9.83901 80.4821 13.896H81.4821C81.4821 9.23876 77.9243 5.90747 73.1095 5.90747V6.90747ZM65.737 13.896C65.737 9.8384 68.7837 6.90747 73.1095 6.90747V5.90747C68.2793 5.90747 64.737 9.23937 64.737 13.896H65.737ZM73.1095 20.8849C68.7844 20.8849 65.737 17.9395 65.737 13.896H64.737C64.737 18.5372 68.2786 21.8849 73.1095 21.8849V20.8849ZM73.1096 16.5358C72.3529 16.5357 71.7285 16.2631 71.2928 15.8145C70.8563 15.365 70.5812 14.7098 70.5812 13.8963H69.5812C69.5812 14.9411 69.9386 15.8555 70.5754 16.5112C71.2129 17.1676 72.1026 17.5356 73.1094 17.5358L73.1096 16.5358ZM75.6378 13.8966C75.6378 14.71 75.3627 15.3653 74.9263 15.8147C74.4906 16.2633 73.8661 16.5358 73.1095 16.5358V17.5358C74.1164 17.5358 75.0061 17.1678 75.6436 16.5114C76.2804 15.8557 76.6378 14.9414 76.6378 13.8966H75.6378ZM73.1095 11.2571C73.8649 11.2571 74.4895 11.5315 74.9258 11.982C75.3631 12.4333 75.6378 13.0892 75.6378 13.8966H76.6378C76.6378 12.8566 76.2801 11.9427 75.6441 11.2862C75.0072 10.6287 74.1177 10.2571 73.1095 10.2571V11.2571ZM70.5812 13.8963C70.5812 13.0829 70.8563 12.4276 71.2927 11.9782C71.7285 11.5296 72.3529 11.2571 73.1095 11.2571V10.2571C72.1026 10.2571 71.2129 10.6251 70.5754 11.2815C69.9386 11.9372 69.5812 12.8515 69.5812 13.8963H70.5812ZM87.4978 20.4663V26H88.4978V20.4663H87.4978ZM91.4208 20.8997C90.2408 20.8997 89.1682 20.5897 88.2566 20.0384L87.7391 20.8941C88.8094 21.5413 90.0615 21.8997 91.4208 21.8997V20.8997ZM98.2835 13.896C98.2835 18.008 95.4295 20.8997 91.4208 20.8997V21.8997C95.9993 21.8997 99.2835 18.5426 99.2835 13.896H98.2835ZM91.4208 6.90721C95.4308 6.90721 98.2835 9.7854 98.2835 13.896H99.2835C99.2835 9.24811 95.998 5.90721 91.4208 5.90721L91.4208 6.90721ZM87.4387 8.36268C88.5022 7.44211 89.8719 6.90721 91.4208 6.90721V5.90721C89.6326 5.90721 88.0302 6.52805 86.7842 7.60658L87.4387 8.36268ZM86.0661 7.10639L86.6719 8.22307L87.5509 7.74619L86.945 6.6295L86.0661 7.10639ZM83.2165 7.36794H86.5056V6.36794H83.2165V7.36794ZM83.7165 26V6.86794H82.7165V26H83.7165ZM87.9978 25.5H83.2165V26.5H87.9978V25.5ZM90.7739 16.6126C89.25 16.6126 88.1307 15.478 88.1307 13.8958H87.1307C87.1307 16.0068 88.6745 17.6126 90.7739 17.6126V16.6126ZM93.4171 13.8958C93.4171 15.4768 92.2877 16.6126 90.7739 16.6126V17.6126C92.8609 17.6126 94.4171 16.0079 94.4171 13.8958H93.4171ZM90.7739 11.179C92.2978 11.179 93.4171 12.3136 93.4171 13.8958H94.4171C94.4171 11.7848 92.8732 10.179 90.7739 10.179V11.179ZM88.1307 13.8958C88.1307 12.3136 89.25 11.179 90.7739 11.179V10.179C88.6745 10.179 87.1307 11.7848 87.1307 13.8958H88.1307ZM105.339 13.4181V20.9241H106.339V13.4181H105.339ZM108.215 10.0746C107.356 10.0746 106.615 10.3846 106.096 10.9968C105.587 11.5986 105.339 12.4373 105.339 13.4181H106.339C106.339 12.5951 106.547 12.012 106.86 11.643C107.163 11.2845 107.61 11.0746 108.215 11.0746V10.0746ZM110.546 13.0222C110.546 12.1696 110.399 11.4302 110.007 10.8949C109.592 10.3284 108.966 10.0746 108.215 10.0746V11.0746C108.726 11.0746 109.015 11.234 109.2 11.4861C109.408 11.7693 109.546 12.2537 109.546 13.0222H110.546ZM110.546 20.9241V13.0222H109.546V20.9241H110.546ZM114.882 20.4241H110.046V21.4241H114.882V20.4241ZM114.382 12.4597V20.9241H115.382V12.4597H114.382ZM109.587 6.95225C111.069 6.95225 112.251 7.4913 113.068 8.42001C113.891 9.3553 114.382 10.7302 114.382 12.4597H115.382C115.382 10.5458 114.838 8.91697 113.819 7.75938C112.794 6.59522 111.329 5.95225 109.587 5.95225V6.95225ZM106.153 8.18205C107.104 7.41544 108.309 6.95225 109.587 6.95225V5.95225C108.066 5.95225 106.642 6.50318 105.525 7.40353L106.153 8.18205ZM105.339 1.79209V7.79279H106.339V1.79209H105.339ZM101.002 2.29209H105.839V1.29209H101.002V2.29209ZM101.502 20.9241V1.79209H100.502V20.9241H101.502ZM105.839 20.4241H101.002V21.4241H105.839V20.4241ZM123.074 5.10884V1H122.074V5.10884H123.074ZM117.811 5.60884H122.574V4.60884H117.811V5.60884ZM117.311 1V5.10884H118.311V1H117.311ZM122.574 0.5H117.811V1.5H122.574V0.5ZM117.774 7.36768H122.611V6.36768H117.774V7.36768ZM118.274 20.9239V6.86768H117.274V20.9239H118.274ZM122.611 20.4239H117.774V21.4239H122.611V20.4239ZM122.111 6.86768V20.9239H123.111V6.86768H122.111ZM130.989 20.9241V1.79209H129.989V20.9241H130.989ZM125.653 21.4241H130.489V20.4241H125.653V21.4241ZM125.153 1.79209V20.9241H126.153V1.79209H125.153ZM130.489 1.29209H125.653V2.29209H130.489V1.29209ZM147.214 16.0257C146.295 19.0084 143.66 20.8851 140.34 20.8851V21.8851C144.066 21.8851 147.112 19.7533 148.17 16.3201L147.214 16.0257ZM142.879 16.6729H147.692V15.6729H142.879V16.6729ZM140.34 17.9911C141.612 17.9911 142.743 17.4296 143.314 16.4189L142.444 15.9269C142.085 16.5618 141.329 16.9911 140.34 16.9911V17.9911ZM136.983 15.1413C137.158 16.0315 137.538 16.7552 138.131 17.2549C138.725 17.7556 139.484 17.9911 140.34 17.9911V16.9911C139.67 16.9911 139.154 16.8096 138.775 16.4904C138.396 16.1701 138.106 15.6708 137.965 14.9487L136.983 15.1413ZM147.9 14.545H137.474V15.545H147.9V14.545ZM147.5 13.7633C147.5 14.1577 147.466 14.5567 147.405 14.9734L148.395 15.1166C148.461 14.6639 148.5 14.2159 148.5 13.7633H147.5ZM140.34 6.90747C144.599 6.90747 147.5 9.92504 147.5 13.7633L148.5 13.7633C148.5 9.35472 145.133 5.90747 140.34 5.90747V6.90747ZM133.214 13.8854C133.214 9.86098 136.201 6.90747 140.34 6.90747V5.90747C135.666 5.90747 132.214 9.29123 132.214 13.8854H133.214ZM140.34 20.8851C136.228 20.8851 133.214 17.8961 133.214 13.8854H132.214C132.214 18.463 135.69 21.8851 140.34 21.8851V20.8851ZM143.236 11.8639H137.559V12.8639H143.236V11.8639ZM140.34 10.7011C140.981 10.7011 141.489 10.8664 141.877 11.1561C142.265 11.4462 142.57 11.889 142.757 12.5085L143.714 12.2193C143.477 11.434 143.064 10.7954 142.475 10.3552C141.886 9.91479 141.158 9.70109 140.34 9.70109V10.7011ZM138.041 12.4989C138.213 11.8831 138.505 11.4419 138.875 11.1534C139.244 10.8658 139.729 10.7011 140.34 10.7011V9.70109C139.542 9.70109 138.832 9.91962 138.261 10.3644C137.691 10.8083 137.296 11.4485 137.078 12.229L138.041 12.4989Z"
              fill="black"/>
    </g>
    <defs>
        <filter id="filter0_d_0_8518" x="0.5" y="0.5" width="152" height="34" filterUnits="userSpaceOnUse"
                color-interpolation-filters="sRGB">
            <feFlood flood-opacity="0" result="BackgroundImageFix"/>
            <feColorMatrix in="SourceAlpha" type="matrix" values="0 0 0 0 0 0 0 0 0 0 0 0 0 0 0 0 0 0 127 0"
                           result="hardAlpha"/>
            <feOffset dy="4"/>
            <feGaussianBlur stdDeviation="2"/>
            <feComposite in2="hardAlpha" operator="out"/>
            <feColorMatrix type="matrix" values="0 0 0 0 0 0 0 0 0 0 0 0 0 0 0 0 0 0 0.25 0"/>
            <feBlend mode="normal" in2="BackgroundImageFix" result="effect1_dropShadow_0_8518"/>
            <feBlend mode="normal" in="SourceGraphic" in2="effect1_dropShadow_0_8518" result="shape"/>
        </filter>
    </defs>
</svg>